<svg width="45" height="45" viewBox="0 0 45 45" fill="none" xmlns="http://www.w3.org/2000/svg">
<g clip-path="url(#clip0)">
<path d="M37.2418 5.52743C37.2418 4.24201 36.1996 3.19981 34.9142 3.19981H32.5866C32.5866 1.91439 31.5444 0.872192 30.259 0.872192C28.9736 0.872192 27.9314 1.91439 27.9314 3.19981H24.8279C24.8279 1.91439 23.7857 0.872192 22.5003 0.872192C21.2149 0.872192 20.1727 1.91439 20.1727 3.19981H17.0692C17.0692 1.91439 16.027 0.872192 14.7416 0.872192C13.4561 0.872192 12.4139 1.91439 12.4139 3.19981H9.31046C9.31046 1.91439 8.26826 0.872192 6.98284 0.872192C5.69743 0.872192 4.65523 1.91439 4.65523 3.19981H2.32761C1.0422 3.19981 0 4.24201 0 5.52743V38.1141C0 38.5425 0.3474 38.8899 0.775872 38.8899H3.10349V41.2175C3.10349 41.646 3.45089 41.9934 3.87936 41.9934H24.3104C24.3206 41.9934 24.3282 41.9881 24.3377 41.9881C28.447 44.8222 33.805 45.0916 38.178 42.6833C42.551 40.2754 45.1877 35.6031 44.9896 30.6152C44.7914 25.627 41.7921 21.179 37.2418 19.1253V5.52743ZM29.4831 3.19981C29.4831 2.77134 29.8305 2.42394 30.259 2.42394C30.6875 2.42394 31.0349 2.77134 31.0349 3.19981V5.52743H29.4831V3.19981ZM21.7244 3.19981C21.7244 2.77134 22.0718 2.42394 22.5003 2.42394C22.9287 2.42394 23.2761 2.77134 23.2761 3.19981V5.52743H21.7244V3.19981ZM13.9657 3.19981C13.9657 2.77134 14.3131 2.42394 14.7416 2.42394C15.17 2.42394 15.5174 2.77134 15.5174 3.19981V5.52743H13.9657V3.19981ZM6.20697 3.19981C6.20697 2.77134 6.55437 2.42394 6.98284 2.42394C7.41132 2.42394 7.75872 2.77134 7.75872 3.19981V5.52743H6.20697V3.19981ZM1.55174 5.52743C1.55174 5.09895 1.89914 4.75155 2.32761 4.75155H4.65523V6.3033C4.65523 6.73177 5.00263 7.07917 5.4311 7.07917H8.53459C8.96306 7.07917 9.31046 6.73177 9.31046 6.3033V4.75155H12.4139V6.3033C12.4139 6.73177 12.7613 7.07917 13.1898 7.07917H16.2933C16.7218 7.07917 17.0692 6.73177 17.0692 6.3033V4.75155H20.1727V6.3033C20.1727 6.73177 20.5201 7.07917 20.9485 7.07917H24.052C24.4805 7.07917 24.8279 6.73177 24.8279 6.3033V4.75155H27.9314V6.3033C27.9314 6.73177 28.2788 7.07917 28.7073 7.07917H31.8107C32.2392 7.07917 32.5866 6.73177 32.5866 6.3033V4.75155H34.9142C35.3427 4.75155 35.6901 5.09895 35.6901 5.52743V9.40679H1.55174V5.52743ZM4.65523 38.8899H21.1683C21.5642 39.44 22.0021 39.9586 22.4779 40.4417H4.65523V38.8899ZM43.4488 31.1312C43.4488 37.5587 38.2382 42.7693 31.8107 42.7693C25.3833 42.7693 20.1727 37.5587 20.1727 31.1312C20.1727 24.7037 25.3833 19.4931 31.8107 19.4931C38.2352 19.5003 43.4416 24.7068 43.4488 31.1312ZM31.8107 17.9414C27.1763 17.9384 22.881 20.369 20.4977 24.3435C18.1144 28.3175 17.9932 33.252 20.1787 37.3382H1.55174V10.9585H35.6901V18.5256C34.4335 18.138 33.1257 17.941 31.8107 17.9414Z" fill="white"/>
<path d="M6.98289 14.062C5.69747 14.062 4.65527 15.1042 4.65527 16.3896C4.65527 17.675 5.69747 18.7172 6.98289 18.7172C8.26831 18.7172 9.31051 17.675 9.31051 16.3896C9.31051 15.1042 8.26831 14.062 6.98289 14.062ZM6.98289 17.1655C6.55442 17.1655 6.20702 16.8181 6.20702 16.3896C6.20702 15.9612 6.55442 15.6138 6.98289 15.6138C7.41136 15.6138 7.75876 15.9612 7.75876 16.3896C7.75876 16.8181 7.41136 17.1655 6.98289 17.1655Z" fill="white"/>
<path d="M14.7416 14.062C13.4561 14.062 12.4139 15.1042 12.4139 16.3896C12.4139 17.675 13.4561 18.7172 14.7416 18.7172C16.027 18.7172 17.0692 17.675 17.0692 16.3896C17.0692 15.1042 16.027 14.062 14.7416 14.062ZM14.7416 17.1655C14.3131 17.1655 13.9657 16.8181 13.9657 16.3896C13.9657 15.9612 14.3131 15.6138 14.7416 15.6138C15.17 15.6138 15.5174 15.9612 15.5174 16.3896C15.5174 16.8181 15.17 17.1655 14.7416 17.1655Z" fill="white"/>
<path d="M22.5003 14.062C21.2149 14.062 20.1727 15.1042 20.1727 16.3896C20.1727 17.675 21.2149 18.7172 22.5003 18.7172C23.7858 18.7172 24.828 17.675 24.828 16.3896C24.828 15.1042 23.7858 14.062 22.5003 14.062ZM22.5003 17.1655C22.0719 17.1655 21.7245 16.8181 21.7245 16.3896C21.7245 15.9612 22.0719 15.6138 22.5003 15.6138C22.9288 15.6138 23.2762 15.9612 23.2762 16.3896C23.2762 16.8181 22.9288 17.1655 22.5003 17.1655Z" fill="white"/>
<path d="M6.98289 20.269C5.69747 20.269 4.65527 21.3112 4.65527 22.5966C4.65527 23.882 5.69747 24.9242 6.98289 24.9242C8.26831 24.9242 9.31051 23.882 9.31051 22.5966C9.31051 21.3112 8.26831 20.269 6.98289 20.269ZM6.98289 23.3725C6.55442 23.3725 6.20702 23.0251 6.20702 22.5966C6.20702 22.1681 6.55442 21.8207 6.98289 21.8207C7.41136 21.8207 7.75876 22.1681 7.75876 22.5966C7.75876 23.0251 7.41136 23.3725 6.98289 23.3725Z" fill="white"/>
<path d="M14.7416 20.269C13.4561 20.269 12.4139 21.3112 12.4139 22.5966C12.4139 23.882 13.4561 24.9242 14.7416 24.9242C16.027 24.9242 17.0692 23.882 17.0692 22.5966C17.0692 21.3112 16.027 20.269 14.7416 20.269ZM14.7416 23.3725C14.3131 23.3725 13.9657 23.0251 13.9657 22.5966C13.9657 22.1681 14.3131 21.8207 14.7416 21.8207C15.17 21.8207 15.5174 22.1681 15.5174 22.5966C15.5174 23.0251 15.17 23.3725 14.7416 23.3725Z" fill="white"/>
<path d="M6.98289 26.476C5.69747 26.476 4.65527 27.5182 4.65527 28.8036C4.65527 30.089 5.69747 31.1312 6.98289 31.1312C8.26831 31.1312 9.31051 30.089 9.31051 28.8036C9.31051 27.5182 8.26831 26.476 6.98289 26.476ZM6.98289 29.5794C6.55442 29.5794 6.20702 29.232 6.20702 28.8036C6.20702 28.3751 6.55442 28.0277 6.98289 28.0277C7.41136 28.0277 7.75876 28.3751 7.75876 28.8036C7.75876 29.232 7.41136 29.5794 6.98289 29.5794Z" fill="white"/>
<path d="M14.7416 26.476C13.4561 26.476 12.4139 27.5182 12.4139 28.8036C12.4139 30.089 13.4561 31.1312 14.7416 31.1312C16.027 31.1312 17.0692 30.089 17.0692 28.8036C17.0692 27.5182 16.027 26.476 14.7416 26.476ZM14.7416 29.5794C14.3131 29.5794 13.9657 29.232 13.9657 28.8036C13.9657 28.3751 14.3131 28.0277 14.7416 28.0277C15.17 28.0277 15.5174 28.3751 15.5174 28.8036C15.5174 29.232 15.17 29.5794 14.7416 29.5794Z" fill="white"/>
<path d="M21.7244 31.1312C21.7244 36.7017 26.2402 41.2175 31.8107 41.2175C37.3812 41.2175 41.897 36.7017 41.897 31.1312C41.897 25.5607 37.3812 21.0449 31.8107 21.0449C26.2428 21.0513 21.7308 25.5633 21.7244 31.1312ZM40.3453 31.1312H38.7936C38.3651 31.1312 38.0177 31.4786 38.0177 31.9071C38.0177 32.3355 38.3651 32.6829 38.7936 32.6829H40.1972C39.4974 36.4384 36.3902 39.2733 32.5866 39.6264V38.114C32.5866 37.6856 32.2392 37.3382 31.8107 37.3382C31.3822 37.3382 31.0348 37.6856 31.0348 38.114V39.6264C27.2312 39.2733 24.124 36.4384 23.4242 32.6829H24.8279C25.2563 32.6829 25.6037 32.3355 25.6037 31.9071C25.6037 31.4786 25.2563 31.1312 24.8279 31.1312H23.2761C23.2818 26.7215 26.6437 23.0406 31.0348 22.6364V24.1483C31.0348 24.5768 31.3822 24.9242 31.8107 24.9242C32.2392 24.9242 32.5866 24.5768 32.5866 24.1483V22.6364C36.9778 23.0406 40.3396 26.7215 40.3453 31.1312Z" fill="white"/>
<path d="M31.9775 30.7588L30.9046 29.1491C30.6667 28.7926 30.1848 28.6964 29.8283 28.9339C29.4718 29.1718 29.3756 29.6537 29.6135 30.0102L31.1653 32.3378C31.2876 32.5204 31.4816 32.6428 31.699 32.6746C31.7362 32.6803 31.7733 32.6833 31.8108 32.6829C31.9923 32.6833 32.1681 32.6197 32.3075 32.5037L36.9627 28.6244C37.2923 28.3501 37.337 27.8606 37.0627 27.5314C36.7884 27.2018 36.299 27.1567 35.9694 27.431L31.9775 30.7588Z" fill="white"/>
</g>
<defs>
<clipPath id="clip0">
<rect width="45" height="45" fill="white"/>
</clipPath>
</defs>
</svg>
