<svg width="45" height="45" viewBox="0 0 45 45" fill="none" xmlns="http://www.w3.org/2000/svg">
<path d="M42.1436 33.3545C41.7794 33.3545 41.4844 33.6496 41.4844 34.0137V41.7041C41.4844 42.7946 40.5972 43.6816 39.5068 43.6816H17.1826C16.8185 43.6816 16.5234 43.9768 16.5234 44.3408C16.5234 44.7049 16.8185 45 17.1826 45H39.5068C41.3242 45 42.8027 43.5215 42.8027 41.7041V34.0137C42.8027 33.6496 42.5077 33.3545 42.1436 33.3545Z" fill="white"/>
<path d="M39.5068 4.39453H36.6504V1.53809C36.6504 0.690029 35.9604 0 35.1123 0H32.4756C31.6275 0 30.9375 0.690029 30.9375 1.53809V4.39453H14.0625V1.53809C14.0625 0.690029 13.3725 0 12.5244 0H9.8877C9.03964 0 8.34961 0.690029 8.34961 1.53809V4.39453H5.49316C3.67576 4.39453 2.19727 5.87303 2.19727 7.69043V41.7041C2.19727 43.5215 3.67576 45 5.49316 45H14.1064C14.4706 45 14.7656 44.7049 14.7656 44.3408C14.7656 43.9768 14.4706 43.6816 14.1064 43.6816H5.49316C4.40279 43.6816 3.51562 42.7946 3.51562 41.7041V14.502H28.6084C28.9725 14.502 29.2676 14.2068 29.2676 13.8428C29.2676 13.4787 28.9725 13.1836 28.6084 13.1836H3.51562V7.69043C3.51562 6.59997 4.40279 5.71289 5.49316 5.71289H8.34961V8.56934C8.34961 9.41739 9.03964 10.1074 9.8877 10.1074H12.5244C13.3725 10.1074 14.0625 9.41739 14.0625 8.56934V5.71289H30.9375V8.56934C30.9375 9.41739 31.6275 10.1074 32.4756 10.1074H35.1123C35.9604 10.1074 36.6504 9.41739 36.6504 8.56934V5.71289H39.5068C40.5972 5.71289 41.4844 6.59997 41.4844 7.69043V13.1836H31.6846C31.3204 13.1836 31.0254 13.4787 31.0254 13.8428C31.0254 14.2068 31.3204 14.502 31.6846 14.502H41.4844V30.9375C41.4844 31.3015 41.7794 31.5967 42.1436 31.5967C42.5077 31.5967 42.8027 31.3015 42.8027 30.9375V7.69043C42.8027 5.87303 41.3242 4.39453 39.5068 4.39453ZM12.7441 8.56934C12.7441 8.69045 12.6456 8.78906 12.5244 8.78906H9.8877C9.76649 8.78906 9.66797 8.69045 9.66797 8.56934V1.53809C9.66797 1.41697 9.76649 1.31836 9.8877 1.31836H12.5244C12.6456 1.31836 12.7441 1.41697 12.7441 1.53809V8.56934ZM35.332 8.56934C35.332 8.69045 35.2335 8.78906 35.1123 8.78906H32.4756C32.3544 8.78906 32.2559 8.69045 32.2559 8.56934V1.53809C32.2559 1.41697 32.3544 1.31836 32.4756 1.31836H35.1123C35.2335 1.31836 35.332 1.41697 35.332 1.53809V8.56934Z" fill="white"/>
<path d="M29.3155 39.8743H35.3632C36.0973 39.8743 36.6944 39.2772 36.6944 38.5432V32.4955V25.776V19.7283C36.6944 18.9943 36.0973 18.3972 35.3632 18.3972H29.3155H22.5H15.6844H9.63673C8.90267 18.3972 8.30554 18.9943 8.30554 19.7283V25.776V32.4955V38.5432C8.30554 39.2772 8.90267 39.8743 9.63673 39.8743H15.6844H22.5H29.3155ZM9.62399 26.4351H15.0252V31.8364H9.62399V26.4351ZM16.3436 26.4351H21.8408V31.8364H16.3436V26.4351ZM35.3759 31.8364H29.9747V26.4351H35.3759V31.8364ZM28.6564 31.8364H23.1591V26.4351H28.6564V31.8364ZM23.1591 33.1547H28.6564V38.556H23.1591V33.1547ZM35.3759 38.5432C35.3759 38.5502 35.3702 38.556 35.3631 38.556H29.9746V33.1547H35.3759V38.5432ZM35.3759 19.7283V25.1168H29.9747V19.7155H35.3632C35.3702 19.7155 35.3759 19.7213 35.3759 19.7283ZM28.6564 25.1168H23.1591V19.7155H28.6564V25.1168ZM21.8408 25.1168H16.3436V19.7155H21.8408V25.1168ZM9.62399 19.7283C9.62399 19.7213 9.6297 19.7155 9.63682 19.7155H15.0253V25.1168H9.62399V19.7283ZM9.62399 38.5432V33.1547H15.0252V38.556H9.63673C9.6297 38.556 9.62399 38.5502 9.62399 38.5432ZM16.3436 33.1547H21.8408V38.556H16.3436V33.1547Z" fill="white"/>
</svg>
