<svg width="20" height="20" viewBox="0 0 20 20" fill="none" xmlns="http://www.w3.org/2000/svg">
<g clip-path="url(#clip0)">
<path d="M19.9969 4.94279C19.986 4.83232 19.9429 4.72146 19.8674 4.62924C19.8382 4.59358 20.1366 4.89431 15.4141 0.17176C15.3015 0.0591838 15.1487 8.30277e-05 14.9995 0.00012209C14.6442 0.00012209 2.11171 0.00012209 1.75773 0.00012209C0.788483 0.00012209 -6.10352e-05 0.788666 -6.10352e-05 1.75791V18.2421C-6.10352e-05 19.2113 0.788483 19.9998 1.75773 19.9998H18.2419C19.2111 19.9998 19.9997 19.2113 19.9997 18.2421C19.9997 4.01624 20.0013 4.98771 19.9969 4.94279ZM13.4764 1.17198V5.00005C13.4764 5.32314 13.2135 5.58598 12.8904 5.58598H12.1483V1.17198H13.4764ZM10.9764 1.17198V5.58598H5.54678C5.2237 5.58598 4.96085 5.32314 4.96085 5.00005V1.17198H10.9764ZM13.4764 12.539H4.96085V11.7968C4.96085 11.4738 5.2237 11.2109 5.54678 11.2109H12.8904C13.2135 11.2109 13.4764 11.4738 13.4764 11.7968V12.539ZM4.96085 18.828V13.7109H13.4764V18.828H4.96085ZM18.8278 18.2421C18.8278 18.5651 18.565 18.828 18.2419 18.828H14.6482C14.6482 18.0641 14.6482 12.6676 14.6482 11.7968C14.6482 10.8276 13.8597 10.039 12.8904 10.039H5.54678C4.57753 10.039 3.78899 10.8276 3.78899 11.7968V18.828H1.75777C1.43468 18.828 1.17184 18.5651 1.17184 18.2421V1.75791C1.17184 1.43483 1.43468 1.17198 1.75777 1.17198H3.78899V5.00005C3.78899 5.9693 4.57753 6.75784 5.54678 6.75784H12.8904C13.8597 6.75784 14.6482 5.9693 14.6482 5.00005V1.17198H14.7571L18.8278 5.24278V18.2421Z" fill="black"/>
</g>
<defs>
<clipPath id="clip0">
<rect width="20" height="20" fill="white"/>
</clipPath>
</defs>
</svg>
