<svg width="45" height="45" viewBox="0 0 45 45" fill="none" xmlns="http://www.w3.org/2000/svg">
<path d="M38.9187 20.786C40.2364 19.86 41.109 18.3196 41.109 16.5834C41.109 13.7431 38.8118 11.4459 35.9715 11.4459C33.1312 11.4459 30.834 13.7431 30.834 16.5834C30.834 18.3196 31.6977 19.86 33.0243 20.786C31.8935 21.1778 30.8607 21.7832 29.9881 22.5668C28.7861 21.5428 27.3704 20.7593 25.8211 20.2963C27.6998 19.1566 28.9642 17.082 28.9642 14.7225C28.9642 11.1253 26.0526 8.21379 22.4555 8.21379C18.8583 8.21379 15.9468 11.1343 15.9468 14.7225C15.9468 17.082 17.2022 19.1566 19.0898 20.2963C17.5584 20.7593 16.1605 21.5339 14.9674 22.5401C14.0948 21.7743 13.0797 21.1778 11.9668 20.7949C13.2845 19.8689 14.1571 18.3286 14.1571 16.5923C14.1571 13.752 11.8599 11.4548 9.01959 11.4548C6.17926 11.4548 3.88207 13.752 3.88207 16.5923C3.88207 18.3286 4.74575 19.8689 6.07242 20.7949C2.53759 22.0147 0 25.3715 0 29.3159V29.9035C0 29.9214 0.0178077 29.9392 0.0356154 29.9392H10.925C10.8627 30.4289 10.8271 30.9364 10.8271 31.4439V32.0494C10.8271 34.6671 12.9462 36.7862 15.5639 36.7862H29.3649C31.9826 36.7862 34.1017 34.6671 34.1017 32.0494V31.4439C34.1017 30.9364 34.0661 30.4289 34.0038 29.9392H44.9644C44.9822 29.9392 45 29.9214 45 29.9035V29.3159C44.9822 25.3626 42.4535 22.0058 38.9187 20.786ZM32.2586 16.5745C32.2586 14.5266 33.9236 12.8616 35.9715 12.8616C38.0194 12.8616 39.6844 14.5266 39.6844 16.5745C39.6844 18.5957 38.055 20.2429 36.0427 20.2874C36.016 20.2874 35.9982 20.2874 35.9715 20.2874C35.9448 20.2874 35.927 20.2874 35.9003 20.2874C33.8791 20.2518 32.2586 18.6046 32.2586 16.5745ZM17.3536 14.7225C17.3536 11.9178 19.633 9.63841 22.4377 9.63841C25.2424 9.63841 27.5218 11.9178 27.5218 14.7225C27.5218 17.4293 25.3937 19.6463 22.7315 19.7977C22.6336 19.7977 22.5356 19.7977 22.4377 19.7977C22.3397 19.7977 22.2418 19.7977 22.1438 19.7977C19.4816 19.6463 17.3536 17.4293 17.3536 14.7225ZM5.27998 16.5745C5.27998 14.5266 6.94499 12.8616 8.99288 12.8616C11.0408 12.8616 12.7058 14.5266 12.7058 16.5745C12.7058 18.5957 11.0764 20.2429 9.06411 20.2874C9.0374 20.2874 9.01959 20.2874 8.99288 20.2874C8.96617 20.2874 8.94836 20.2874 8.92165 20.2874C6.90938 20.2518 5.27998 18.6046 5.27998 16.5745ZM11.1743 28.5056H1.44242C1.84309 24.7126 5.04848 21.7387 8.93945 21.712C8.95726 21.712 8.97507 21.712 8.99288 21.712C9.01068 21.712 9.02849 21.712 9.0463 21.712C10.8983 21.7209 12.59 22.4065 13.8989 23.5195C12.6167 24.9085 11.664 26.618 11.1743 28.5056ZM32.6593 32.0494C32.6593 33.8747 31.1723 35.3616 29.3471 35.3616H15.5461C13.7208 35.3616 12.2339 33.8747 12.2339 32.0494V31.4439C12.2339 25.9146 16.6502 21.3915 22.1438 21.2312C22.2418 21.2401 22.3486 21.2401 22.4466 21.2401C22.5445 21.2401 22.6514 21.2401 22.7493 21.2312C28.243 21.3915 32.6593 25.9146 32.6593 31.4439V32.0494ZM33.7188 28.5056C33.2291 26.6269 32.2942 24.9441 31.021 23.5551C32.3387 22.4154 34.0483 21.7298 35.9181 21.712C35.9359 21.712 35.9537 21.712 35.9715 21.712C35.9893 21.712 36.0071 21.712 36.0249 21.712C39.9159 21.7387 43.1213 24.7126 43.522 28.5056H33.7188Z" fill="white"/>
</svg>
