<svg width="45" height="45" viewBox="0 0 45 45" fill="none" xmlns="http://www.w3.org/2000/svg">
<path d="M24.6 45H20.4C18.9806 45 17.7825 43.9369 17.6138 42.525L17.1656 39.0075C16.2712 38.7169 15.4088 38.3587 14.5894 37.9406L11.7881 40.1175C10.6519 40.9969 9.0525 40.8956 8.06625 39.8813L5.11312 36.9281C4.10625 35.9512 4.005 34.3519 4.88438 33.2175L7.06125 30.4144C6.64125 29.595 6.28312 28.7325 5.99438 27.8381L2.46938 27.39C1.06313 27.2175 0 26.0194 0 24.6V20.4C0 18.9806 1.06313 17.7825 2.475 17.6138L5.9925 17.1656C6.28313 16.2712 6.64125 15.4088 7.05938 14.5894L4.88438 11.7881C4.00313 10.6519 4.10625 9.05062 5.1225 8.06437L8.07563 5.11125C9.0525 4.10438 10.6537 4.005 11.7862 4.8825L14.5875 7.06125C15.4069 6.64313 16.2694 6.285 17.1656 5.99438L17.6138 2.46938C17.7825 1.06313 18.9806 0 20.4 0H24.6C26.0194 0 27.2175 1.06313 27.3862 2.475L27.8344 5.9925C28.7306 6.28313 29.5931 6.64125 30.4125 7.05938L33.2138 4.8825C34.3519 4.00313 35.9494 4.10437 36.9356 5.12063L39.8888 8.07375C40.8956 9.05063 40.9969 10.65 40.1175 11.7844L37.9406 14.5875C38.3606 15.4069 38.7188 16.2694 39.0075 17.1637L42.5325 17.6119C43.9369 17.7825 45 18.9806 45 20.4V24.6C45 26.0194 43.9369 27.2175 42.525 27.3862L39.0075 27.8344C38.7169 28.7288 38.3587 29.5912 37.9406 30.4106L40.1175 33.2119C40.9987 34.3481 40.8956 35.9475 39.8794 36.9338L36.9263 39.8869C35.9494 40.8938 34.3481 40.9969 33.2156 40.1156L30.4125 37.9387C29.5931 38.3587 28.7306 38.7169 27.8363 39.0056L27.3881 42.5306C27.2175 43.9369 26.0194 45 24.6 45ZM14.4937 35.8875C14.6494 35.8875 14.8088 35.9269 14.9513 36.0056C15.9844 36.5831 17.1038 37.0481 18.2775 37.3856C18.6375 37.4887 18.9019 37.7963 18.9487 38.1675L19.4737 42.2925C19.53 42.7631 19.9369 43.125 20.4 43.125H24.6C25.0631 43.125 25.47 42.7631 25.5244 42.3019L26.0513 38.1694C26.0981 37.7981 26.3625 37.4906 26.7225 37.3875C27.8962 37.05 29.0156 36.585 30.0487 36.0075C30.3769 35.8237 30.7856 35.8556 31.08 36.0863L34.3613 38.6363C34.7381 38.9288 35.2669 38.9044 35.5894 38.5725L38.5612 35.6006C38.9006 35.2706 38.9269 34.7419 38.6344 34.3631L36.0844 31.0819C35.8538 30.7856 35.8219 30.3787 36.0056 30.0506C36.5831 29.0175 37.0481 27.8981 37.3856 26.7244C37.4887 26.3644 37.7963 26.1 38.1675 26.0531L42.2925 25.5281C42.7631 25.47 43.125 25.0631 43.125 24.6V20.4C43.125 19.9369 42.7631 19.53 42.3019 19.4756L38.1694 18.9487C37.7981 18.9019 37.4906 18.6375 37.3875 18.2775C37.05 17.1038 36.585 15.9844 36.0075 14.9513C35.8237 14.6231 35.8538 14.2162 36.0863 13.92L38.6363 10.6388C38.9306 10.26 38.9044 9.73125 38.5744 9.4125L35.6025 6.44062C35.2744 6.09937 34.7437 6.07312 34.365 6.3675L31.0837 8.9175C30.7856 9.14812 30.3787 9.18 30.0506 8.99625C29.0213 8.41875 27.9019 7.95562 26.7244 7.61625C26.3644 7.51312 26.1 7.20563 26.0531 6.83437L25.5281 2.70938C25.47 2.23688 25.0631 1.875 24.6 1.875H20.4C19.9369 1.875 19.53 2.23688 19.4756 2.69813L18.9487 6.83062C18.9019 7.20187 18.6375 7.50937 18.2775 7.61437C17.1 7.95187 15.9806 8.41687 14.9513 8.9925C14.6231 9.17813 14.2162 9.14437 13.9181 8.91563L10.6369 6.36562C10.2581 6.07125 9.73125 6.0975 9.41063 6.4275L6.43875 9.40125C6.09938 9.73125 6.07312 10.26 6.36562 10.6388L8.91563 13.92C9.14625 14.2162 9.17812 14.6231 8.99438 14.9513C8.415 15.9844 7.95187 17.1038 7.61437 18.2775C7.51125 18.6375 7.20375 18.9019 6.8325 18.9487L2.7075 19.4737C2.23688 19.53 1.875 19.9369 1.875 20.4V24.6C1.875 25.0631 2.23688 25.47 2.69813 25.5244L6.83062 26.0513C7.20187 26.0981 7.50938 26.3625 7.6125 26.7225C7.95 27.8962 8.415 29.0156 8.9925 30.0487C9.17625 30.3769 9.14625 30.7838 8.91375 31.08L6.36375 34.3613C6.06938 34.74 6.09562 35.2687 6.42562 35.5875L9.3975 38.5594C9.72563 38.8988 10.2525 38.925 10.635 38.6325L13.9163 36.0825C14.0869 35.955 14.2894 35.8875 14.4937 35.8875Z" fill="white"/>
<path d="M22.5 31.875C17.3306 31.875 13.125 27.6694 13.125 22.5C13.125 17.3306 17.3306 13.125 22.5 13.125C27.6694 13.125 31.875 17.3306 31.875 22.5C31.875 27.6694 27.6694 31.875 22.5 31.875ZM22.5 15C18.3637 15 15 18.3637 15 22.5C15 26.6362 18.3637 30 22.5 30C26.6363 30 30 26.6362 30 22.5C30 18.3637 26.6363 15 22.5 15Z" fill="white"/>
</svg>
